<svg xmlns="http://www.w3.org/2000/svg" viewBox="0 0 279 436" width="279" height="436">
	<style>
		tspan { white-space:pre }
		.shp0 { fill: #0B1B1B } 
	</style>
	<g id="Layer">
		<g id="Layer">
			<path id="Layer" class="shp0" d="M278.86 224.77C278.86 216.06 272.21 209.41 263.5 209.41C254.8 209.41 248.14 216.06 248.14 224.77C248.14 284.67 199.5 333.31 139.6 333.31C79.7 333.31 31.06 284.67 31.06 224.77C31.06 216.06 24.4 209.41 15.7 209.41C6.99 209.41 0.34 216.06 0.34 224.77C0.34 295.94 53.58 355.84 124.24 363.52L124.24 404.48L68.43 404.48C59.73 404.48 53.07 411.14 53.07 419.84C53.07 428.54 59.73 435.2 68.43 435.2L210.77 435.2C219.47 435.2 226.13 428.54 226.13 419.84C226.13 411.14 219.47 404.48 210.77 404.48L154.96 404.48L154.96 363.52C225.62 355.84 278.86 295.94 278.86 224.77Z" />
		</g>
	</g>
	<g id="Layer">
		<g id="Layer">
			<path id="Layer" class="shp0" d="M139.6 0C92.5 0 54.1 38.4 54.1 85.5L54.1 224.26C54.1 271.87 92.5 309.76 139.6 310.27C186.7 310.27 225.1 271.87 225.1 224.77L225.1 85.5C225.1 38.4 186.7 0 139.6 0Z" />
		</g>
	</g>
	<g id="Layer">
	</g>
	<g id="Layer">
	</g>
	<g id="Layer">
	</g>
	<g id="Layer">
	</g>
	<g id="Layer">
	</g>
	<g id="Layer">
	</g>
	<g id="Layer">
	</g>
	<g id="Layer">
	</g>
	<g id="Layer">
	</g>
	<g id="Layer">
	</g>
	<g id="Layer">
	</g>
	<g id="Layer">
	</g>
	<g id="Layer">
	</g>
	<g id="Layer">
	</g>
	<g id="Layer">
	</g>
</svg>