<?xml version="1.0" standalone="no"?>
<!DOCTYPE svg PUBLIC "-//W3C//DTD SVG 20010904//EN"
 "http://www.w3.org/TR/2001/REC-SVG-20010904/DTD/svg10.dtd">
<svg version="1.0" xmlns="http://www.w3.org/2000/svg"
 width="1280.000000pt" height="1212.000000pt" viewBox="0 0 1280.000000 1212.000000"
 preserveAspectRatio="xMidYMid meet">
<metadata>
Created by potrace 1.15, written by Peter Selinger 2001-2017
</metadata>
<g transform="translate(0.000000,1212.000000) scale(0.100000,-0.100000)"
fill="#9c27b0" stroke="none">
<path d="M5644 9788 l-749 -2311 -2445 6 -2445 6 30 -24 c17 -13 905 -654
1975 -1424 1070 -771 1946 -1407 1948 -1414 1 -6 -337 -1047 -753 -2311 -415
-1265 -753 -2301 -751 -2303 2 -2 876 630 1942 1404 1067 775 1954 1419 1972
1431 l32 23 1971 -1431 c1084 -787 1973 -1430 1974 -1428 2 2 -337 1041 -754
2308 -694 2111 -757 2306 -742 2321 9 9 894 647 1966 1419 1073 772 1957 1409
1965 1417 13 12 -347 13 -2431 7 l-2445 -7 -57 174 c-31 96 -368 1136 -749
2311 -381 1176 -696 2138 -699 2138 -3 0 -342 -1040 -755 -2312z"/>
</g>
</svg>
